<svg width="18" height="15" viewBox="0 0 18 15" fill="none" xmlns="http://www.w3.org/2000/svg">
<path d="M15.238 1.51504C14.071 0.979475 12.8393 0.59762 11.574 0.379045C11.5626 0.376708 11.5507 0.378065 11.5401 0.382918C11.5295 0.387771 11.5207 0.39587 11.515 0.406045C11.3473 0.710849 11.1951 1.02391 11.059 1.34404C9.69516 1.1369 8.30785 1.1369 6.94401 1.34404C6.80673 1.02307 6.65183 0.709929 6.48001 0.406045C6.47405 0.396353 6.46538 0.388625 6.45507 0.383825C6.44475 0.379024 6.43326 0.377362 6.42201 0.379045C5.15601 0.597045 3.92501 0.979045 2.75801 1.51504C2.74815 1.51909 2.73977 1.52608 2.73401 1.53504C0.400007 5.02304 -0.239993 8.42404 0.0740067 11.782C0.0749882 11.7903 0.0776187 11.7983 0.0817416 11.8055C0.0858645 11.8127 0.0913958 11.819 0.0980067 11.824C1.45649 12.8305 2.97612 13.5988 4.59201 14.096C4.60343 14.0997 4.61573 14.0998 4.62719 14.0962C4.63865 14.0926 4.64872 14.0856 4.65601 14.076C5.00201 13.603 5.31001 13.104 5.57601 12.58C5.57975 12.5728 5.5819 12.5648 5.58229 12.5566C5.58268 12.5485 5.58131 12.5403 5.57828 12.5327C5.57524 12.5251 5.57061 12.5183 5.5647 12.5127C5.55878 12.507 5.55173 12.5027 5.54401 12.5C5.05907 12.3145 4.5896 12.0908 4.14001 11.831C4.13178 11.8263 4.12484 11.8197 4.11978 11.8117C4.11473 11.8036 4.11171 11.7945 4.11101 11.785C4.1104 11.7755 4.11218 11.7659 4.1162 11.7571C4.12021 11.7484 4.12633 11.7408 4.13401 11.735C4.22801 11.665 4.32301 11.591 4.41301 11.517C4.421 11.5105 4.43064 11.5063 4.44088 11.5049C4.45111 11.5034 4.46154 11.5049 4.47101 11.509C7.41701 12.854 10.606 12.854 13.517 11.509C13.5265 11.5046 13.5371 11.5028 13.5475 11.5041C13.5579 11.5053 13.5678 11.5095 13.576 11.516C13.666 11.59 13.76 11.665 13.856 11.736C13.8635 11.7417 13.8696 11.7492 13.8736 11.7577C13.8776 11.7662 13.8794 11.7756 13.879 11.785C13.8783 11.7944 13.8754 11.8034 13.8706 11.8114C13.8657 11.8194 13.859 11.8261 13.851 11.831C13.4024 12.0932 12.9323 12.317 12.446 12.5C12.4385 12.503 12.4317 12.5074 12.426 12.5131C12.4204 12.5188 12.4159 12.5256 12.413 12.533C12.4099 12.5406 12.4085 12.5486 12.4088 12.5568C12.4092 12.5649 12.4113 12.5728 12.415 12.58C12.685 13.103 12.995 13.602 13.335 14.075C13.3418 14.0846 13.3515 14.0918 13.3626 14.0955C13.3737 14.0993 13.3858 14.0995 13.397 14.096C15.016 13.6004 16.5386 12.832 17.899 11.824C17.9056 11.8193 17.9111 11.8132 17.915 11.806C17.9193 11.7991 17.9221 11.7912 17.923 11.783C18.298 7.90004 17.293 4.52705 15.261 1.53705C15.256 1.52758 15.2479 1.51916 15.238 1.51504ZM6.01501 9.73604C5.12801 9.73604 4.39701 8.92204 4.39701 7.92204C4.39701 6.92204 5.11401 6.10804 6.01501 6.10804C6.92301 6.10804 7.64701 6.92904 7.63301 7.92204C7.63301 8.92204 6.91601 9.73604 6.01501 9.73604ZM11.996 9.73604C11.109 9.73604 10.378 8.92204 10.378 7.92204C10.378 6.92204 11.095 6.10804 11.996 6.10804C12.904 6.10804 13.628 6.92904 13.614 7.92204C13.614 8.92204 12.904 9.73604 11.996 9.73604Z" fill="#3F3F46"/>
</svg>
