<svg width="12" height="12" viewBox="0 0 12 12" fill="none" xmlns="http://www.w3.org/2000/svg">
<path d="M8.01009 8.00003C8.41155 7.60641 8.73092 7.13704 8.94971 6.61911C9.16849 6.10118 9.28233 5.54499 9.28463 4.98276C9.28694 4.42052 9.17766 3.86342 8.96313 3.34371C8.74861 2.82401 8.43309 2.35203 8.03487 1.95513C7.63664 1.55823 7.16362 1.24429 6.64321 1.03149C6.12279 0.818695 5.56533 0.711273 5.0031 0.715449C4.44088 0.719625 3.88507 0.835316 3.36787 1.05582C2.85067 1.27632 2.38237 1.59726 1.99008 2.00003C1.20956 2.80143 0.776476 3.87825 0.784785 4.9969C0.793094 6.11555 1.24212 7.18582 2.03447 7.97553C2.82681 8.76524 3.89857 9.21071 5.01724 9.2153C6.13592 9.21988 7.21129 8.78322 8.01009 8.00003ZM8.01009 8.00003L11.2501 11.25" stroke="#71717A" stroke-linecap="round" stroke-linejoin="round"/>
</svg>
