<svg width="18" height="18" viewBox="0 0 18 18" fill="none" xmlns="http://www.w3.org/2000/svg">
<path fill-rule="evenodd" clip-rule="evenodd" d="M9.00002 0.667016C4.39502 0.667016 0.666016 4.49002 0.666016 9.21102C0.666016 12.991 3.05102 16.185 6.36402 17.317C6.78102 17.392 6.93702 17.135 6.93702 16.911C6.93702 16.708 6.92602 16.036 6.92602 15.319C4.83302 15.716 4.29102 14.797 4.12402 14.317C4.03002 14.071 3.62402 13.312 3.27002 13.11C2.97902 12.95 2.56202 12.554 3.26002 12.543C3.91602 12.533 4.38402 13.163 4.54102 13.419C5.29102 14.711 6.48902 14.349 6.96802 14.124C7.04102 13.569 7.25902 13.194 7.49902 12.981C5.64502 12.768 3.70802 12.031 3.70802 8.76301C3.70802 7.83401 4.03002 7.06502 4.56202 6.46702C4.47902 6.25302 4.18702 5.37702 4.64502 4.20202C4.64502 4.20202 5.34302 3.97802 6.93702 5.07802C7.61459 4.88565 8.31567 4.78872 9.02002 4.79002C9.72902 4.79002 10.437 4.88602 11.104 5.07802C12.697 3.96802 13.395 4.20302 13.395 4.20302C13.854 5.37702 13.562 6.25302 13.479 6.46602C14.009 7.06502 14.333 7.82301 14.333 8.76301C14.333 12.041 12.385 12.768 10.531 12.982C10.833 13.248 11.094 13.762 11.094 14.562C11.094 15.705 11.083 16.623 11.083 16.912C11.083 17.136 11.239 17.403 11.656 17.317C13.32 16.7372 14.7584 15.6467 15.766 14.201C16.7874 12.7376 17.3344 10.9956 17.333 9.21102C17.333 4.49002 13.603 0.666016 8.99901 0.666016L9.00002 0.667016Z" fill="#3F3F46"/>
</svg>
