<svg width="21" height="20" viewBox="0 0 21 20" fill="none" xmlns="http://www.w3.org/2000/svg">
<path d="M12.75 10C12.75 10.663 12.4866 11.2989 12.0178 11.7678C11.5489 12.2366 10.913 12.5 10.25 12.5C9.58696 12.5 8.95107 12.2366 8.48223 11.7678C8.01339 11.2989 7.75 10.663 7.75 10C7.75 9.33696 8.01339 8.70107 8.48223 8.23223C8.95107 7.76339 9.58696 7.5 10.25 7.5C10.913 7.5 11.5489 7.76339 12.0178 8.23223C12.4866 8.70107 12.75 9.33696 12.75 10Z" stroke="#18181B"/>
<path d="M10.25 5.5V4.5M13.432 6.818L14.139 6.111M14.75 10H15.75M13.432 13.182L14.139 13.889M10.25 15.5V14.5M6.36 13.889L7.068 13.182M4.75 10H5.75M6.36 6.111L7.068 6.818" stroke="#18181B" stroke-linecap="round"/>
</svg>
