<svg width="17" height="14" viewBox="0 0 17 14" fill="none" xmlns="http://www.w3.org/2000/svg">
<path d="M14.712 3.65189C14.722 3.79789 14.722 3.94189 14.722 4.08789C14.722 8.53689 11.455 13.6669 5.48 13.6669V13.6639C3.7073 13.6644 1.97425 13.1393 0.5 12.1549C1.35398 12.2583 2.22006 12.188 3.04615 11.9481C3.87224 11.7082 4.64128 11.3037 5.307 10.7589C3.917 10.7319 2.699 9.79289 2.272 8.42189C2.759 8.51889 3.262 8.49889 3.739 8.36289C2.225 8.04689 1.133 6.66689 1.133 5.06289V5.02189C1.583 5.28189 2.089 5.42589 2.608 5.44189C1.18 4.45389 0.74 2.48589 1.602 0.946893C3.252 3.05089 5.685 4.32889 8.297 4.46389C8.16697 3.89199 8.18506 3.29637 8.34956 2.73342C8.51405 2.17046 8.81951 1.65881 9.237 1.24689C9.5432 0.944826 9.90763 0.708186 10.3081 0.551363C10.7086 0.394539 11.1369 0.320808 11.5668 0.334651C11.9967 0.348495 12.4192 0.449624 12.8088 0.63189C13.1984 0.814156 13.5469 1.07375 13.833 1.39489C14.5631 1.24515 15.2613 0.968635 15.896 0.577893C15.6593 1.34976 15.1523 2.01046 14.468 2.43889C15.1133 2.35979 15.7425 2.18099 16.333 1.90889C15.9008 2.5818 15.3523 3.17235 14.713 3.65289L14.712 3.65189Z" fill="#3F3F46"/>
</svg>
