<svg width="99" height="24" viewBox="0 0 99 24" fill="none" xmlns="http://www.w3.org/2000/svg">
<g clip-path="url(#clip0_6_191)">
<path d="M16 8C16 6.67392 15.4732 5.40215 14.5355 4.46447C13.5979 3.52678 12.3261 3 11 3H5C3.67392 3 2.40215 3.52678 1.46447 4.46447C0.526784 5.40215 0 6.67392 0 8L0 21.927C4.17376e-05 22.1152 0.0531705 22.2995 0.153281 22.4588C0.253391 22.6181 0.396421 22.746 0.565934 22.8277C0.735447 22.9093 0.924564 22.9415 1.11155 22.9205C1.29854 22.8995 1.47581 22.8262 1.623 22.709L5.307 19.779C6.01476 19.2158 6.89251 18.9091 7.797 18.909H11C12.3261 18.909 13.5979 18.3822 14.5355 17.4445C15.4732 16.5069 16 15.2351 16 13.909V8Z" fill="#34D399"/>
<path d="M26.5381 18H29.1921V14.001H31.7681C34.4401 14.001 36.2241 12.278 36.2241 9.66805V9.65005C36.2241 7.04005 34.4401 5.31705 31.7681 5.31705H26.5381V18ZM31.1181 7.41805C32.6381 7.41805 33.5341 8.21805 33.5341 9.65905V9.67705C33.5341 11.118 32.6381 11.927 31.1171 11.927H29.1921V7.41805H31.1181ZM38.0511 18H40.6171V12.586C40.6171 11.215 41.5401 10.38 42.9991 10.38C43.3951 10.38 43.7901 10.441 44.1771 10.53V8.28705C43.8642 8.20592 43.5423 8.16459 43.2191 8.16405C41.9621 8.16405 41.0831 8.77905 40.7761 9.82505H40.6171V8.32305H38.0511V18ZM49.6011 18.202C52.5801 18.202 54.3731 16.322 54.3731 13.166V13.148C54.3731 10.02 52.5531 8.11205 49.6001 8.11205C46.6471 8.11205 44.8281 10.028 44.8281 13.148V13.166C44.8281 16.312 46.6211 18.202 49.6001 18.202H49.6011ZM49.6011 16.189C48.2291 16.189 47.4561 15.073 47.4561 13.166V13.148C47.4561 11.258 48.2381 10.125 49.6001 10.125C50.9541 10.125 51.7451 11.259 51.7451 13.148V13.166C51.7451 15.073 50.9631 16.189 49.6001 16.189H49.6011ZM60.1211 18.035C60.6131 18.035 61.0881 17.982 61.4041 17.921V16.014C61.1536 16.0444 60.9014 16.0591 60.6491 16.058C59.7791 16.058 59.4091 15.671 59.4091 14.801V10.257H61.4041V8.32305H59.4101V6.01205H56.8181V8.32305H55.3231V10.257H56.8181V15.39C56.8181 17.27 57.7661 18.035 60.1211 18.035ZM67.4081 18.202C70.3881 18.202 72.1801 16.322 72.1801 13.166V13.148C72.1801 10.02 70.3601 8.11205 67.4081 8.11205C64.4541 8.11205 62.6351 10.028 62.6351 13.148V13.166C62.6351 16.312 64.4281 18.202 67.4081 18.202ZM67.4081 16.189C66.0361 16.189 65.2631 15.073 65.2631 13.166V13.148C65.2631 11.258 66.0451 10.125 67.4081 10.125C68.7611 10.125 69.5521 11.259 69.5521 13.148V13.166C69.5521 15.073 68.7701 16.189 67.4081 16.189ZM78.1751 18.202C80.6971 18.202 82.2091 16.849 82.4721 14.739L82.4821 14.686H80.1081L80.0911 14.722C79.8621 15.688 79.2381 16.189 78.1831 16.189C76.8131 16.189 76.0481 15.109 76.0481 13.149V13.131C76.0481 11.197 76.8031 10.125 78.1831 10.125C79.2821 10.125 79.9231 10.74 80.0911 11.681L80.0991 11.698H82.4901V11.672C82.2621 9.51005 80.7411 8.11205 78.1751 8.11205C75.1421 8.11205 73.4371 9.94905 73.4371 13.131V13.148C73.4371 16.365 75.1511 18.202 78.1751 18.202ZM88.4321 18.202C91.4121 18.202 93.2041 16.322 93.2041 13.166V13.148C93.2041 10.02 91.3841 8.11205 88.4321 8.11205C85.4791 8.11205 83.6591 10.028 83.6591 13.148V13.166C83.6591 16.312 85.4521 18.202 88.4321 18.202ZM88.4321 16.189C87.0611 16.189 86.2871 15.073 86.2871 13.166V13.148C86.2871 11.258 87.0691 10.125 88.4321 10.125C89.7851 10.125 90.5761 11.259 90.5761 13.148V13.166C90.5761 15.073 89.7941 16.189 88.4321 16.189ZM95.0251 18H97.5911V4.62305H95.0251V18Z" fill="#18181B"/>
</g>
<defs>
<clipPath id="clip0_6_191">
<rect width="99" height="24" fill="white"/>
</clipPath>
</defs>
</svg>
